<?xml version="1.0" encoding="UTF-8"?>
<svg version="1.1" xmlns="http://www.w3.org/2000/svg" width="28" height="28">
<path d="M0 0 C8.21809745 -0.87703016 8.21809745 -0.87703016 12 0.984375 C14.72740848 3.31840726 15.86701846 5.02865658 16.359375 8.625 C16.37352115 11.11472279 16.26408235 13.52545058 16 16 C14.68 16 13.36 16 12 16 C12 12.04 12 8.08 12 4 C8.04 4 4.08 4 0 4 C0 2.68 0 1.36 0 0 Z " fill="#3445FF" transform="translate(0,12)"/>
<path d="M0 0 C1.32 0 2.64 0 4 0 C4 3.96 4 7.92 4 12 C7.96 12 11.92 12 16 12 C16 13.32 16 14.64 16 16 C7.78190255 16.87703016 7.78190255 16.87703016 4 15.015625 C1.27259152 12.68159274 0.13298154 10.97134342 -0.359375 7.375 C-0.37352115 4.88527721 -0.26408235 2.47454942 0 0 Z " fill="#3445FF" transform="translate(12,0)"/>
</svg>
