<?xml version="1.0" encoding="UTF-8"?>
<svg version="1.1" xmlns="http://www.w3.org/2000/svg" width="300" height="300">
<path d="M0 0 C8.44082187 7.76126418 14.6050252 16.94562512 15.14453125 28.74609375 C15.35477181 43.82384581 12.34594186 53.21352027 2.046875 64.69921875 C-1.42166526 68.25526806 -5.16202448 71.50358701 -8.921875 74.74609375 C-11.53476376 77.02551944 -14.09555021 79.35743603 -16.65625 81.6953125 C-21.10790336 85.75453361 -25.61338489 89.73862353 -30.15625 93.6953125 C-33.12625 96.3353125 -36.09625 98.9753125 -39.15625 101.6953125 C-21.33625 102.0253125 -3.51625 102.3553125 14.84375 102.6953125 C14.84375 108.9653125 14.84375 115.2353125 14.84375 121.6953125 C-13.86625 121.6953125 -42.57625 121.6953125 -72.15625 121.6953125 C-72.15625 104.6953125 -72.15625 104.6953125 -68.65625 100.0703125 C-67.18611187 98.90656043 -65.68572659 97.77989831 -64.15625 96.6953125 C-62.87460409 95.58264628 -61.60361517 94.45758209 -60.34375 93.3203125 C-59.68761719 92.75570312 -59.03148437 92.19109375 -58.35546875 91.609375 C-55.75233118 89.34376681 -53.20466276 87.02227698 -50.65625 84.6953125 C-47.53717989 81.85007022 -44.40869609 79.0233167 -41.21875 76.2578125 C-37.27468579 72.83206474 -33.43524064 69.29518872 -29.59375 65.75561523 C-26.67093016 63.06753204 -23.72083271 60.41946917 -20.71875 57.8203125 C-10.23714256 48.73048427 -10.23714256 48.73048427 -5.86328125 35.99609375 C-5.5117958 28.57690093 -6.57214149 22.68316715 -11.15625 16.6953125 C-17.91478497 10.98868959 -24.52838585 10.07988186 -33.15625 10.6953125 C-40.17914506 11.91245203 -44.12470529 16.01846171 -48.15625 21.6953125 C-50.22067248 25.29588773 -50.61402901 28.58992504 -51.15625 32.6953125 C-52.15625 33.6953125 -52.15625 33.6953125 -54.01391602 33.80883789 C-54.80467529 33.80360107 -55.59543457 33.79836426 -56.41015625 33.79296875 C-57.26416016 33.78974609 -58.11816406 33.78652344 -58.99804688 33.78320312 C-59.89587891 33.77482422 -60.79371094 33.76644531 -61.71875 33.7578125 C-62.62044922 33.75330078 -63.52214844 33.74878906 -64.45117188 33.74414062 C-66.68626314 33.73231475 -68.92122437 33.7158347 -71.15625 33.6953125 C-71.44179718 20.75050688 -67.72148515 11.67304964 -59.03125 2.0078125 C-43.52393354 -12.64745361 -16.45945481 -13.42389962 0 0 Z " fill="#FFFFFF" transform="translate(229.15625,92.3046875)"/>
<path d="M0 0 C7.26 0 14.52 0 22 0 C20.41315914 4.76052259 18.62479675 9.1354028 16.46484375 13.6328125 C16.11394684 14.37074539 15.76304993 15.10867828 15.40151978 15.86897278 C14.64446268 17.45999742 13.88582488 19.0502707 13.12576294 20.63986206 C11.92377135 23.15371214 10.7258524 25.6694654 9.52905273 28.18579102 C7.86276535 31.68875969 6.19506054 35.19104794 4.52636719 38.69287109 C0.89475742 46.31764238 -2.71827205 53.95118413 -6.3263855 61.58709717 C-7.41760096 63.89540644 -8.51060305 66.20286348 -9.60375977 68.51025391 C-10.27629303 69.9325753 -10.9487422 71.35493645 -11.62109375 72.77734375 C-11.9203476 73.40808304 -12.21960144 74.03882233 -12.52792358 74.68867493 C-14.44968524 78.76056533 -16.22384168 82.85563058 -18 87 C-6.78 87 4.44 87 16 87 C16 75.78 16 64.56 16 53 C22.6 53 29.2 53 36 53 C36 64.22 36 75.44 36 87 C39.96 87 43.92 87 48 87 C48 93.27 48 99.54 48 106 C44.04 106 40.08 106 36 106 C36 113.26 36 120.52 36 128 C29.4 128 22.8 128 16 128 C16 120.74 16 113.48 16 106 C-2.81 106 -21.62 106 -41 106 C-41 83.08603605 -41 83.08603605 -34.3125 71 C-33.62062728 69.67586256 -32.93338593 68.34929622 -32.25048828 67.02050781 C-30.85798303 64.31525721 -29.44979539 61.61915212 -28.03076172 58.92773438 C-24.9199 52.97371827 -22.15897963 46.86251982 -19.375 40.75 C-13.082717 27.08507935 -6.56389841 13.53602618 0 0 Z " fill="#FFFFFF" transform="translate(97,86)"/>
<path d="M0 0 C6.27 0 12.54 0 19 0 C19 22.77 19 45.54 19 69 C41.77 69 64.54 69 88 69 C88 75.27 88 81.54 88 88 C65.64022618 91.0398484 40.95143001 94.29965631 21.9473877 79.84753418 C9.62297276 69.48801247 0.08395196 58.0023048 -1.90997314 41.63336182 C-2.98457852 27.68570723 -1.88027542 13.83047029 0 0 Z " fill="#FFFFFF" transform="translate(0,212)"/>
<path d="M0 0 C22.35977382 -3.0398484 47.04856999 -6.29965631 66.0526123 8.15246582 C78.37702724 18.51198753 87.91604804 29.9976952 89.90997314 46.36663818 C90.98457852 60.31429277 89.88027542 74.16952971 88 88 C81.73 88 75.46 88 69 88 C69 65.23 69 42.46 69 19 C46.23 19 23.46 19 0 19 C0 12.73 0 6.46 0 0 Z " fill="#FFFFFF" transform="translate(212,0)"/>
</svg>
