<svg width="1427" height="600" viewBox="0 0 1427 600" fill="none" xmlns="http://www.w3.org/2000/svg">
<path d="M173.006 600V562.508H37.4912L74.9829 600H173.006Z" fill="#222222"/>
<path d="M0 426.993H37.4917V562.508L0 525.017V426.993Z" fill="#222222"/>
<path d="M264.593 426.993V382.73H149.967V347.813L232.498 173.051H274.645L192.114 347.813H264.593V279.037H301.979V347.813H327.197V382.73H301.979V426.993H264.593Z" fill="#222222"/>
<path d="M483.442 326.122C492.613 318.01 500.257 310.488 506.368 303.549C512.478 296.61 517.063 289.088 520.123 280.976C523.183 272.864 524.708 262.989 524.708 251.35C524.708 235.24 521.031 220.903 513.686 208.321C506.341 195.738 496.316 185.836 483.619 178.606C470.922 171.376 456.576 167.761 440.59 167.761C423.775 167.761 408.847 171.261 395.797 178.253C382.747 185.246 372.493 194.945 365.024 207.351C357.556 219.757 353.826 234.182 353.826 250.644H391.565C391.45 242.18 393.443 234.306 397.561 227.014C401.678 219.722 407.41 213.876 414.755 209.467C422.099 205.058 430.476 202.854 439.884 202.854C449.292 202.854 457.166 204.97 464.22 209.202C471.274 213.435 476.803 219.166 480.797 226.396C484.791 233.627 486.793 241.765 486.793 250.821C486.793 257.989 485.179 265.167 481.943 272.335C478.707 279.504 472.623 287.034 463.691 294.908L353.121 394.016L352.944 426.817H524.708V391.723H409.94L483.442 326.122Z" fill="#222222"/>
<path d="M622.748 426.993L564.553 236.36L601.057 236.537L640.912 367.211L681.12 236.537H712.862L753.07 367.211L792.925 236.537H829.253L771.057 426.993H741.431L696.991 289.088L652.375 426.993H622.748Z" fill="#222222"/>
<path d="M1001.86 287.325C1001.16 280.386 999.28 273.808 996.22 267.574C990.339 254.991 981.081 245.795 968.445 239.975C955.81 234.156 940.961 231.246 923.917 231.246C901.935 231.246 884.327 236.069 871.101 245.707C857.875 255.344 848.907 268.341 844.208 284.68L878.596 295.261C881.885 284.565 887.704 276.894 896.054 272.247C904.404 267.6 913.574 265.281 923.565 265.281C939.436 265.281 950.634 268.897 957.159 276.127C962.855 282.44 965.968 291.681 966.514 303.858C959.31 304.872 952.08 305.886 944.815 306.9C932.999 308.549 921.739 310.312 911.044 312.19C900.348 314.068 890.764 316.246 882.299 318.715C872.538 321.889 864.311 326.034 857.61 331.148C850.909 336.262 845.857 342.46 842.444 349.752C839.032 357.044 837.33 365.509 837.33 375.147C837.33 385.489 839.772 394.986 844.649 403.627C849.525 412.268 856.728 419.207 866.251 424.436C875.774 429.665 887.589 432.284 901.697 432.284C919.447 432.284 934.41 428.73 946.578 421.615C955.687 416.289 963.596 408.873 970.297 399.368V426.993H1002.92V309.721C1002.92 301.724 1002.57 294.264 1001.86 287.325ZM962.361 364.389C960.951 370.623 957.953 376.619 953.367 382.377C948.782 388.135 942.725 392.87 935.204 396.573C927.682 400.276 918.689 402.128 908.222 402.128C900.348 402.128 893.876 400.894 888.824 398.425C883.772 395.956 880.006 392.632 877.538 388.461C875.069 384.29 873.834 379.732 873.834 374.794C873.834 369.856 874.981 365.447 877.273 361.92C879.566 358.393 882.678 355.396 886.62 352.927C890.552 350.458 895.058 348.342 900.11 346.578C906.106 344.7 912.957 343.086 920.655 341.729C928.352 340.379 936.967 338.995 946.49 337.584C952.609 336.676 959.169 335.697 966.162 334.648C966.091 337.761 965.968 341.314 965.8 345.344C965.509 352.398 964.363 358.746 962.361 364.389Z" fill="#222222"/>
<path d="M1092.47 266.163V350.281C1092.47 357.926 1092.56 364.566 1092.74 370.209C1092.91 375.852 1094.12 380.613 1096.35 384.493C1100.58 391.785 1107.31 395.929 1116.54 396.926C1125.77 397.922 1136.62 397.543 1149.08 395.779V426.993C1137.09 429.347 1125.33 430.344 1113.81 429.991C1102.28 429.638 1092 427.408 1082.95 423.29C1073.89 419.172 1067.08 412.709 1062.49 403.891C1058.37 396.017 1056.17 387.994 1055.88 379.82C1055.59 371.646 1055.44 362.388 1055.44 352.045V266.163H1018.93V236.537H1055.44V183.632H1092.47V236.537H1183.29V183.632H1220.32V236.537H1276.93V266.163H1220.32V350.281C1220.32 357.926 1220.41 364.566 1220.59 370.209C1220.76 375.852 1221.97 380.613 1224.2 384.493C1228.44 391.785 1235.16 395.929 1244.4 396.926C1253.63 397.922 1264.47 397.543 1276.93 395.779V426.993C1264.94 429.347 1253.19 430.344 1241.66 429.991C1230.14 429.638 1219.86 427.408 1210.8 423.29C1201.75 419.172 1194.93 412.709 1190.34 403.891C1186.23 396.017 1184.02 387.994 1183.73 379.82C1183.44 371.646 1183.29 362.388 1183.29 352.045V266.163H1092.47Z" fill="#222222"/>
<path d="M1253.89 3.05176e-05V37.4918H1389.41L1351.92 3.05176e-05H1253.89Z" fill="#222222"/>
<path d="M1426.9 173.007H1389.41V37.4918L1426.9 74.9835V173.007Z" fill="#222222"/>
</svg>
