<?xml version="1.0" encoding="UTF-8"?>
<svg version="1.1" xmlns="http://www.w3.org/2000/svg" width="1534" height="681">
<path d="M0 0 C14.19 0 28.38 0 43 0 C43 19.8 43 39.6 43 60 C76.66 60 110.32 60 145 60 C145 40.2 145 20.4 145 0 C159.19 0 173.38 0 188 0 C188 19.8 188 39.6 188 60 C209.12 60 230.24 60 252 60 C252 71.22 252 82.44 252 94 C230.88 94 209.76 94 188 94 C188.09665319 116.4920139 188.09665319 116.4920139 188.22207737 138.98381615 C188.27187835 147.029721 188.31734859 155.07557276 188.34643555 163.12158203 C188.3694846 169.49351068 188.40295901 175.86528692 188.44870156 182.23709452 C188.47254126 185.60768457 188.49133033 188.97812455 188.49761391 192.34879684 C188.50727353 196.12126672 188.53535697 199.89319227 188.56762695 203.66552734 C188.56619186 204.77036469 188.56475677 205.87520203 188.5632782 207.01351929 C188.68506651 217.11813394 190.44543802 225.95532961 197.4609375 233.58984375 C205.87302728 241.66623981 216.44906333 241.43172147 227.5 241.25 C228.75425781 241.24484375 230.00851562 241.2396875 231.30078125 241.234375 C238.31969144 241.17557785 244.96769151 240.70323085 252 240 C252 252.21 252 264.42 252 277 C225.04880889 281.9376228 192.82543554 284.55413093 168.75 268.8125 C156.03474791 259.18847614 147.92493708 245.74653818 145.70017338 229.85885048 C144.95925789 222.93293423 144.8649173 216.07576583 144.88647461 209.11474609 C144.88632858 207.8648288 144.88618256 206.6149115 144.8860321 205.32711792 C144.8866056 201.93109978 144.89158886 198.53514393 144.89860606 195.13913679 C144.90489661 191.57840633 144.90544788 188.01767486 144.90663147 184.4569397 C144.90972808 177.72823106 144.91791877 170.99953886 144.92798096 164.27083743 C144.94129469 155.16841306 144.94665551 146.06598414 144.95248318 136.96355247 C144.96185993 122.64235603 144.98178995 108.32119424 145 94 C111.34 94 77.68 94 43 94 C43.09665319 116.4920139 43.09665319 116.4920139 43.22207737 138.98381615 C43.27187835 147.029721 43.31734859 155.07557276 43.34643555 163.12158203 C43.3694846 169.49351068 43.40295901 175.86528692 43.44870156 182.23709452 C43.47254126 185.60768457 43.49133033 188.97812455 43.49761391 192.34879684 C43.50727353 196.12126672 43.53535697 199.89319227 43.56762695 203.66552734 C43.56619186 204.77036469 43.56475677 205.87520203 43.5632782 207.01351929 C43.68506651 217.11813394 45.44543802 225.95532961 52.4609375 233.58984375 C60.87302728 241.66623981 71.44906333 241.43172147 82.5 241.25 C83.75425781 241.24484375 85.00851562 241.2396875 86.30078125 241.234375 C93.31969144 241.17557785 99.96769151 240.70323085 107 240 C107 252.21 107 264.42 107 277 C80.04880889 281.9376228 47.82543554 284.55413093 23.75 268.8125 C11.03474791 259.18847614 2.92493708 245.74653818 0.70017338 229.85885048 C-0.04074211 222.93293423 -0.1350827 216.07576583 -0.11352539 209.11474609 C-0.11367142 207.8648288 -0.11381744 206.6149115 -0.1139679 205.32711792 C-0.1133944 201.93109978 -0.10841114 198.53514393 -0.10139394 195.13913679 C-0.09510339 191.57840633 -0.09455212 188.01767486 -0.09336853 184.4569397 C-0.09027192 177.72823106 -0.08208123 170.99953886 -0.07201904 164.27083743 C-0.0608058 156.60449007 -0.05533437 148.93814189 -0.05032361 141.27178836 C-0.03989707 125.51451447 -0.02157256 109.75726317 0 94 C-13.53 94 -27.06 94 -41 94 C-41 82.78 -41 71.56 -41 60 C-27.47 60 -13.94 60 0 60 C0 40.2 0 20.4 0 0 Z " fill="#222222" transform="translate(1154,208)"/>
<path d="M0 0 C14.19 0 28.38 0 43 0 C53.57612969 34.29574171 64.11812958 68.60137938 74.5625 102.9375 C74.79039089 103.68660519 75.01828178 104.43571037 75.25307846 105.20751572 C76.77481633 110.20976739 78.29589199 115.21222001 79.81640625 120.21484375 C80.387043 122.09209137 80.387043 122.09209137 80.96920776 124.00726318 C82.99237405 130.66767412 85.00586628 137.33083615 87 144 C89.11264891 139.25887769 90.87538824 134.52564428 92.36572266 129.55078125 C92.6916498 128.48055694 92.6916498 128.48055694 93.02416134 127.38871193 C93.74118305 125.03108646 94.4525927 122.67180623 95.1640625 120.3125 C95.67409396 118.63207656 96.18451428 116.9517711 96.69529724 115.27157593 C97.78009617 111.70081229 98.86256966 108.1293558 99.94314575 104.55731201 C102.47460336 96.18967463 105.01783591 87.82561362 107.56009865 79.46125412 C108.41096249 76.66140948 109.26136575 73.86142522 110.11174011 71.06143188 C115.04678976 54.81753028 120.03854884 38.59161115 125.0625 22.375 C125.42506897 21.20420898 125.78763794 20.03341797 126.16119385 18.82714844 C128.105151 12.55071089 130.05206062 6.27520498 132 0 C144.54 0 157.08 0 170 0 C172.37638672 7.81751953 172.37638672 7.81751953 174.80078125 15.79296875 C184.92525726 49.07822166 195.05524559 82.36175722 205.38521957 115.58392715 C206.00102258 117.56579103 206.61561152 119.54802778 207.22988892 121.53036499 C208.35758597 125.16863069 209.49077821 128.80516891 210.625 132.44140625 C210.95610275 133.51031097 211.28720551 134.5792157 211.62834167 135.68051147 C211.92887955 136.64002716 212.22941742 137.59954285 212.5390625 138.58813477 C212.79896973 139.4222438 213.05887695 140.25635284 213.32666016 141.11573792 C213.84350082 142.9861411 213.84350082 142.9861411 215 144 C215.21423615 143.29544678 215.42847229 142.59089355 215.64920044 141.86499023 C226.25252152 106.99571384 236.86790645 72.13014852 247.51686859 37.27478027 C248.25095935 34.87185974 248.98490223 32.46889408 249.71881104 30.06591797 C250.87348113 26.28541202 252.02857176 22.50503483 253.18401718 18.72476578 C253.60924195 17.33339239 254.03434662 15.9419823 254.45932388 14.55053329 C255.03924917 12.6519041 255.61970789 10.75343787 256.20019531 8.85498047 C256.52546204 7.79068817 256.85072876 6.72639587 257.18585205 5.62985229 C257.76893013 3.74639952 258.37651188 1.87046437 259 0 C272.86 0 286.72 0 301 0 C299.75592384 6.22038081 298.51961291 12.07179006 296.64355469 18.07080078 C296.41479299 18.81643469 296.18603128 19.5620686 295.95033741 20.33029747 C295.1954586 22.78674868 294.43367951 25.24100119 293.671875 27.6953125 C293.1291046 29.45693409 292.58679319 31.21869716 292.04490662 32.98059082 C290.88830761 36.73802925 289.72873267 40.49453067 288.56674194 44.25030518 C286.73138091 50.18277074 284.90276106 56.11730002 283.07543945 62.05224609 C281.20614742 68.12264987 279.33658421 74.19296851 277.46479797 80.26260376 C272.13438919 97.54859114 266.83656284 114.84440478 261.55514526 132.14541626 C260.42184133 135.85788229 259.28764591 139.57007517 258.15311527 143.28216648 C253.94076436 157.06495724 249.73790304 170.85049207 245.5625 184.64453125 C244.8930038 186.8540096 244.22348952 189.06348246 243.55395508 191.27294922 C242.34694886 195.25653901 241.14414648 199.24136204 239.9440918 203.22705078 C239.42510611 204.94177374 238.90599118 206.6564576 238.38671875 208.37109375 C238.15561401 209.14314651 237.92450928 209.91519928 237.68640137 210.71064758 C236.11364546 215.88635454 236.11364546 215.88635454 235 217 C232.47905924 217.08847743 229.98569107 217.11527301 227.46484375 217.09765625 C226.33496788 217.09553383 226.33496788 217.09553383 225.18226624 217.09336853 C222.7673044 217.08775376 220.35243399 217.07519883 217.9375 217.0625 C216.30403779 217.0574869 214.67057414 217.05292366 213.03710938 217.04882812 C209.02470415 217.03777954 205.01236759 217.02050506 201 217 C188.50003392 179.73411611 176.29035675 142.37442921 164.3125 104.9375 C163.81139709 103.37150055 163.81139709 103.37150055 163.3001709 101.77386475 C161.46563239 96.03771972 159.63679645 90.29980365 157.81451416 84.55975342 C157.02555232 82.08030264 156.23073452 79.60279115 155.43505859 77.12548828 C154.970806 75.66836519 154.50676146 74.21117579 154.04296875 72.75390625 C153.64489014 71.51068604 153.24681152 70.26746582 152.83666992 68.98657227 C152 66 152 66 152 63 C151.34 63 150.68 63 150 63 C149.76635742 64.18231201 149.53271484 65.36462402 149.29199219 66.58276367 C147.76727673 73.41881497 145.5085052 80.02820325 143.328125 86.67578125 C142.85222492 88.13733758 142.37671546 89.59902115 141.90156555 91.06082153 C140.88534667 94.18463364 139.86657822 97.30759764 138.84573364 100.42990112 C137.23676059 105.35111665 135.63334474 110.27413077 134.03100586 115.19750977 C132.37128442 120.29650225 130.71129337 125.39540548 129.04942322 130.49369812 C123.4355937 147.71730779 117.85987914 164.95318244 112.28874207 182.1906395 C110.42567187 187.95463891 108.56163658 193.71832627 106.69753075 199.48199081 C106.08306471 201.38208142 105.4688136 203.28224153 104.85456848 205.18240356 C104.49078598 206.30742279 104.12700348 207.43244202 103.75219727 208.59155273 C103.43597916 209.56970444 103.11976105 210.54785614 102.79396057 211.5556488 C102.20367429 213.37295186 101.60423739 215.18728782 101 217 C89.45 217 77.9 217 66 217 C49.62964216 163.67798208 33.26400315 110.35457334 17 57 C16.78699249 56.30124001 16.57398499 55.60248001 16.35452271 54.88254547 C13.65485274 46.02587543 10.95769524 37.16844506 8.26446533 28.30981445 C7.5112661 25.83279802 6.75765195 23.3559077 6.00360107 20.87915039 C4.98276926 17.52532652 3.96374274 14.17096003 2.9453125 10.81640625 C2.64341003 9.82556534 2.34150757 8.83472443 2.03045654 7.81385803 C1.76017639 6.92210373 1.48989624 6.03034943 1.21142578 5.11157227 C0.97577911 4.33612564 0.74013245 3.56067902 0.49734497 2.76173401 C0 1 0 1 0 0 Z " fill="#222222" transform="translate(597,268)"/>
<path d="M0 0 C0.81339844 0.72960937 1.62679687 1.45921875 2.46484375 2.2109375 C3.37105469 3.02304688 4.27726563 3.83515625 5.2109375 4.671875 C22.61529791 21.13480676 32.96383702 44.33532663 33.66796875 68.328125 C33.89343389 84.87611777 33.07520313 100.17787145 25.46484375 115.2109375 C24.98402344 116.17128906 24.50320313 117.13164062 24.0078125 118.12109375 C15.58637873 133.67308459 1.95917342 146.97931076 -11.41015625 158.37109375 C-14.1707114 160.76120675 -16.85112117 163.23582685 -19.53515625 165.7109375 C-23.49073907 169.35294557 -27.48078128 172.94594012 -31.54296875 176.46875 C-33.8953626 178.52594149 -36.21550591 180.61690665 -38.53515625 182.7109375 C-41.49385376 185.38142094 -44.46442097 188.03391808 -47.47265625 190.6484375 C-50.70075137 193.45916275 -53.87254068 196.3267365 -57.03515625 199.2109375 C-60.82178623 202.66421903 -64.63991945 206.07192801 -68.5078125 209.43359375 C-70.87004798 211.50453237 -73.20311478 213.60606598 -75.53515625 215.7109375 C-81.77281556 221.33631124 -88.08163875 226.83300625 -94.53515625 232.2109375 C-52.29515625 232.5409375 -10.05515625 232.8709375 33.46484375 233.2109375 C33.46484375 246.4109375 33.46484375 259.6109375 33.46484375 273.2109375 C-31.21515625 273.2109375 -95.89515625 273.2109375 -162.53515625 273.2109375 C-162.53515625 236.66499155 -162.53515625 236.66499155 -159.08984375 232.4375 C-158.53554688 231.90898437 -157.98125 231.38046875 -157.41015625 230.8359375 C-156.78496094 230.2378125 -156.15976562 229.6396875 -155.515625 229.0234375 C-152.94351108 226.66947131 -150.33464496 224.36420521 -147.6953125 222.0859375 C-143.58843076 218.52119386 -139.5716966 214.85486602 -135.53515625 211.2109375 C-133.03827633 208.96296773 -130.54062474 206.71585743 -128.04296875 204.46875 C-126.34922731 202.94385506 -124.65654456 201.41778348 -122.96484375 199.890625 C-119.21951369 196.51181042 -115.46997418 193.14197785 -111.66015625 189.8359375 C-108.23183433 186.85177064 -104.87894824 183.78905266 -101.53515625 180.7109375 C-97.57650976 177.06682034 -93.58338937 173.47180095 -89.51953125 169.9453125 C-85.48142363 166.41594285 -81.51541436 162.80523119 -77.53515625 159.2109375 C-68.04296875 150.63920455 -68.04296875 150.63920455 -63.66015625 146.8359375 C-60.23183433 143.85177064 -56.87894824 140.78905266 -53.53515625 137.7109375 C-50.19136426 134.63282234 -46.83847817 131.57010436 -43.41015625 128.5859375 C-42.79011719 128.04582031 -42.17007813 127.50570312 -41.53125 126.94921875 C-40.04459385 125.6545769 -38.55755329 124.36037645 -37.0703125 123.06640625 C-24.10244294 111.61958003 -13.96927919 98.80494895 -11.53515625 81.2109375 C-10.56701921 63.74723475 -13.86624602 49.20548875 -25.3046875 35.53515625 C-35.63103875 24.77477273 -48.94038378 20.62812802 -63.53515625 20.2109375 C-79.16108839 20.81491307 -92.8375396 26.27584326 -103.82421875 37.5625 C-113.21223818 48.63825326 -115.95885524 60.02422845 -117.53515625 74.2109375 C-132.05515625 74.2109375 -146.57515625 74.2109375 -161.53515625 74.2109375 C-159.86822275 45.873068 -153.12698689 22.9088377 -132.01953125 3.21875 C-96.85052294 -27.9782761 -36.39096272 -30.78781611 0 0 Z " fill="#222222" transform="translate(519.53515625,210.7890625)"/>
<path d="M0 0 C1.31709961 0.00563965 2.63419922 0.0112793 3.99121094 0.01708984 C28.60594057 0.32258108 52.88841894 5.84193008 71.32421875 23.19921875 C87.02692556 39.88912913 90.48260087 60.58539711 90.42602539 82.54101562 C90.42574298 84.07912189 90.42590231 85.61722829 90.4264679 87.15533447 C90.42675376 91.3117649 90.4208912 95.46816623 90.41389394 99.62458992 C90.40762521 103.9754331 90.40705382 108.32627702 90.40586853 112.67712402 C90.40276557 120.90753481 90.39456618 129.13793224 90.38451904 137.36833715 C90.3733257 146.74198216 90.36783934 156.11562781 90.36282361 165.48927784 C90.35238267 184.76369432 90.3340501 204.03809252 90.3125 223.3125 C77.7725 223.3125 65.2325 223.3125 52.3125 223.3125 C51.9825 214.0725 51.6525 204.8325 51.3125 195.3125 C48.3425 198.6125 45.3725 201.9125 42.3125 205.3125 C24.20545124 223.1492943 0.32686952 229.20756823 -24.5625 229.625 C-44.724629 229.09788552 -64.65552863 224.43323425 -79.81640625 210.3125 C-92.13219855 197.14822932 -98.3126386 181.31022535 -98.0625 163.375 C-98.05234863 162.31958008 -98.04219727 161.26416016 -98.03173828 160.17675781 C-97.68671911 142.88300641 -92.05159676 129.52737491 -79.6875 117.3125 C-78.78257812 116.37470703 -78.78257812 116.37470703 -77.859375 115.41796875 C-48.58219585 87.22277231 10.18502378 86.84724475 48.3125 82.3125 C46.29414509 69.07645267 43.89078693 56.58408939 32.609375 48.01953125 C20.46041336 39.59921434 3.63774271 39.0168304 -10.5625 41 C-23.69676823 43.43922124 -34.41826655 48.73621332 -43.078125 58.9453125 C-46.08081174 63.36188572 -47.87925948 68.31275663 -49.6875 73.3125 C-54.83761418 72.70057626 -59.63471405 71.57071617 -64.58984375 70.02734375 C-65.67369102 69.6965255 -65.67369102 69.6965255 -66.7794342 69.35902405 C-69.06281078 68.66086917 -71.34390385 67.95556572 -73.625 67.25 C-75.18279675 66.77231022 -76.7407382 66.29509204 -78.29882812 65.81835938 C-82.09674633 64.65518389 -85.89263512 63.48559677 -89.6875 62.3125 C-88.77194581 53.72205289 -88.77194581 53.72205289 -87.0859375 50.34765625 C-86.76415527 49.69724365 -86.44237305 49.04683105 -86.11083984 48.37670898 C-85.7648877 47.71614502 -85.41893555 47.05558105 -85.0625 46.375 C-84.52616943 45.32904663 -84.52616943 45.32904663 -83.97900391 44.26196289 C-81.0938854 38.77947212 -77.75780861 33.98798639 -73.6875 29.3125 C-73.24277344 28.72597656 -72.79804687 28.13945312 -72.33984375 27.53515625 C-59.48990187 11.0138024 -38.20259146 3.67411448 -18.25366211 0.72045898 C-12.16979159 0.02448119 -6.11804977 -0.02757298 0 0 Z M40.60766602 118.9675293 C39.65138809 119.11155685 38.69511017 119.25558441 37.70985413 119.40397644 C36.67251633 119.5632814 35.63517853 119.72258636 34.56640625 119.88671875 C33.48608627 120.05242874 32.4057663 120.21813873 31.29270935 120.38887024 C28.99334537 120.74312157 26.6942025 121.09881056 24.39526367 121.45581055 C22.07949488 121.81379991 19.76309823 122.16775506 17.44604492 122.51733398 C-20.48454063 127.01153701 -20.48454063 127.01153701 -51.1875 147.375 C-55.8916095 154.35143358 -56.52326956 161.02793426 -55.6875 169.3125 C-53.71068392 177.23099625 -49.95937905 183.56810292 -43.0546875 188.00390625 C-28.34683185 195.97226147 -11.62534935 195.86741766 4.26953125 191.5 C20.19387942 186.03241265 32.1370643 177.18025309 40.3125 162.3125 C45.23687344 151.18485032 47.53371704 140.33825248 47.9375 128.25 C47.97617188 127.28900391 48.01484375 126.32800781 48.0546875 125.33789062 C48.14788626 122.99627186 48.23369185 120.65463963 48.3125 118.3125 C45.6263391 118.3125 43.2556748 118.56658938 40.60766602 118.9675293 Z " fill="#222222" transform="translate(1004.6875,261.6875)"/>
<path d="M0 0 C2.01555424 0.00079227 4.03121507 0.02907967 6.04614258 0.0793457 C7.63789055 0.08995781 7.63789055 0.08995781 9.26179504 0.1007843 C12.65546785 0.12880229 16.04749863 0.19155739 19.44067383 0.25512695 C21.73947815 0.28020011 24.0383083 0.30301499 26.3371582 0.32348633 C31.97639156 0.37865305 37.61466541 0.46235341 43.25317383 0.56762695 C41.54354189 5.9907192 39.65918529 11.13295217 37.13598633 16.2434082 C36.84301666 16.84178497 36.550047 17.44016174 36.24819946 18.05667114 C35.62176975 19.33529849 34.99296489 20.61276459 34.36193848 21.88912964 C32.65389946 25.34595348 30.96588518 28.81254182 29.27661133 32.27856445 C28.93319702 32.98232712 28.58978271 33.68608978 28.23596191 34.41117859 C25.0744368 40.90398554 22.02413081 47.44579273 19.00317383 54.00512695 C13.74813881 65.3970632 8.39401435 76.73938242 3.00317383 88.06762695 C1.3651233 91.51032116 -0.27291798 94.95301976 -1.91088867 98.39575195 C-2.31667145 99.24857254 -2.72245422 100.10139313 -3.14053345 100.98005676 C-7.2334933 109.58509678 -11.30540823 118.20001872 -15.37182617 126.81762695 C-15.71555267 127.54599762 -16.05927917 128.27436829 -16.41342163 129.02481079 C-17.79908916 131.96123125 -19.18463205 134.89771046 -20.56993103 137.83430481 C-23.14688351 143.29692308 -25.72572247 148.75864825 -28.30541992 154.2199707 C-28.68400146 155.02147552 -29.06258301 155.82298035 -29.45263672 156.64877319 C-30.9189953 159.75321861 -32.38536351 162.85765948 -33.85186768 165.96203613 C-34.18603699 166.66944946 -34.5202063 167.37686279 -34.86450195 168.10571289 C-35.29740036 169.02208527 -35.29740036 169.02208527 -35.73904419 169.95697021 C-40.0830332 179.15678174 -44.41482359 188.36212147 -48.74682617 197.56762695 C-22.34682617 197.89762695 4.05317383 198.22762695 31.25317383 198.56762695 C31.25317383 172.82762695 31.25317383 147.08762695 31.25317383 120.56762695 C45.44317383 120.56762695 59.63317383 120.56762695 74.25317383 120.56762695 C74.25317383 146.30762695 74.25317383 172.04762695 74.25317383 198.56762695 C83.82317383 198.56762695 93.39317383 198.56762695 103.25317383 198.56762695 C103.25317383 211.76762695 103.25317383 224.96762695 103.25317383 238.56762695 C93.68317383 238.56762695 84.11317383 238.56762695 74.25317383 238.56762695 C74.25317383 255.39762695 74.25317383 272.22762695 74.25317383 289.56762695 C60.06317383 289.56762695 45.87317383 289.56762695 31.25317383 289.56762695 C31.25317383 272.73762695 31.25317383 255.90762695 31.25317383 238.56762695 C-11.64682617 238.56762695 -54.54682617 238.56762695 -98.74682617 238.56762695 C-98.74682617 192.2809082 -98.74682617 192.2809082 -84.87573242 168.35327148 C-81.52062176 162.49703396 -78.8235682 156.34535006 -76.05932617 150.19262695 C-71.88247542 141.10432929 -67.60664346 132.0694862 -63.24682617 123.06762695 C-58.95780557 114.20782527 -54.74824324 105.31681174 -50.62182617 96.38012695 C-44.53371045 83.19982473 -38.31403225 70.08406405 -32.07250977 56.97583008 C-27.98290351 48.38567662 -23.90400259 39.79085388 -19.85620117 31.1809082 C-19.46487 30.34917084 -19.07353882 29.51743347 -18.67034912 28.66049194 C-16.40844842 23.85288316 -16.40844842 23.85288316 -14.15197754 19.04272461 C-13.13377343 16.86896473 -12.11245086 14.69669439 -11.09057617 12.5246582 C-10.79455505 11.8900618 -10.49853394 11.25546539 -10.19354248 10.60163879 C-9.39781403 8.91413433 -8.57326412 7.24030607 -7.74682617 5.56762695 C-7.40546631 4.60920898 -7.06410645 3.65079102 -6.71240234 2.66333008 C-4.29066641 0.08126807 -3.45520975 0.19438539 0 0 Z " fill="#222222" transform="translate(225.746826171875,195.432373046875)"/>
<path d="M0 0 C14.19 0 28.38 0 43 0 C43 51.48 43 102.96 43 156 C94.48 156 145.96 156 199 156 C199 170.52 199 185.04 199 200 C152.40810836 206.89413753 98.89206861 214.28230436 58.50390625 185.1171875 C29.21168042 162.95355415 1.25307393 133.24776403 -4.08784103 95.73344707 C-7.97876284 63.93953581 -4.61876037 31.52878683 0 0 Z " fill="#222222" transform="translate(0,481)"/>
<path d="M0 0 C46.84960817 -6.86316015 100.91819018 -14.46606416 141.5625 14.91796875 C170.75801909 37.03309285 198.72045574 66.73822722 204.08326626 104.13909912 C207.77522893 135.7287815 204.63411011 167.68180317 200 199 C185.48 199 170.96 199 156 199 C156 147.52 156 96.04 156 43 C104.52 43 53.04 43 0 43 C0 28.81 0 14.62 0 0 Z " fill="#222222" transform="translate(1334,0)"/>
</svg>
